<svg width="92" height="92" viewBox="0 0 92 92" fill="none" xmlns="http://www.w3.org/2000/svg">
<g filter="url(#filter0_d_515_4633)">
<circle cx="46" cy="46" r="32" fill="#3B1E87"/>
</g>
<g clip-path="url(#clip0_515_4633)">
<path d="M45.9986 19.7441C31.5016 19.7441 19.7422 31.5038 19.7422 46.0012C19.7422 60.4985 31.5016 72.2582 45.9986 72.2582C60.4956 72.2582 72.255 60.4985 72.255 46.0012C72.255 31.5038 60.4956 19.7441 45.9986 19.7441ZM37.8479 59.1919V32.8104L60.6823 46.0012L37.8479 59.1919Z" fill="url(#paint0_linear_515_4633)"/>
</g>
<circle cx="46" cy="46" r="26" fill="#D9D9D9"/>
<circle cx="46" cy="46" r="26" fill="url(#paint1_linear_515_4633)"/>
<g clip-path="url(#clip1_515_4633)">
<path d="M46.4969 39.334C45.5156 39.334 44.5745 39.7238 43.8806 40.4177C43.1867 41.1116 42.7969 42.0527 42.7969 43.034C42.7969 44.0153 43.1867 44.9564 43.8806 45.6503C44.5745 46.3442 45.5156 46.734 46.4969 46.734C47.4782 46.734 48.4193 46.3442 49.1132 45.6503C49.8071 44.9564 50.1969 44.0153 50.1969 43.034C50.1969 42.0527 49.8071 41.1116 49.1132 40.4177C48.4193 39.7238 47.4782 39.334 46.4969 39.334Z" fill="#EFE8FF"/>
<path fill-rule="evenodd" clip-rule="evenodd" d="M50.2 31.9333H47.7333V27H45.2667V31.9333H42.8C38.8748 31.9333 35.1104 33.4926 32.3348 36.2682C29.5593 39.0437 28 42.8081 28 46.7333C28 50.6585 29.5593 54.423 32.3348 57.1985C35.1104 59.9741 38.8748 61.5333 42.8 61.5333H50.2C50.5207 61.5333 50.8413 61.5235 51.1595 61.5013L61.0015 63.963C61.208 64.0144 61.4243 64.0115 61.6293 63.9546C61.8344 63.8977 62.0212 63.7888 62.1716 63.6383C62.3221 63.4879 62.4311 63.301 62.488 63.096C62.5449 62.8909 62.5477 62.6747 62.4963 62.4682L61.0731 56.7727C63.0245 54.6589 64.3176 52.0223 64.7942 49.1853C65.2708 46.3483 64.9102 43.4339 63.7567 40.7985C62.6031 38.1632 60.7065 35.9212 58.2988 34.3467C55.8911 32.7722 53.0768 31.9336 50.2 31.9333ZM40.3333 43.0333C40.3333 41.3978 40.983 39.8293 42.1395 38.6728C43.296 37.5164 44.8645 36.8667 46.5 36.8667C48.1355 36.8667 49.704 37.5164 50.8605 38.6728C52.017 39.8293 52.6667 41.3978 52.6667 43.0333C52.6667 44.6688 52.017 46.2374 50.8605 47.3938C49.704 48.5503 48.1355 49.2 46.5 49.2C44.8645 49.2 43.296 48.5503 42.1395 47.3938C40.983 46.2374 40.3333 44.6688 40.3333 43.0333ZM46.5 56.6C43.9771 56.6038 41.5287 55.7447 39.5613 54.1654L41.1054 52.2414C42.5829 53.4254 44.4576 54.1333 46.5 54.1333C48.5424 54.1333 50.4171 53.4254 51.8946 52.2414L53.4387 54.1654C51.4713 55.7447 49.0229 56.6038 46.5 56.6Z" fill="#EFE8FF"/>
</g>
<defs>
<filter id="filter0_d_515_4633" x="0.871795" y="0.871795" width="90.2564" height="90.2564" filterUnits="userSpaceOnUse" color-interpolation-filters="sRGB">
<feFlood flood-opacity="0" result="BackgroundImageFix"/>
<feColorMatrix in="SourceAlpha" type="matrix" values="0 0 0 0 0 0 0 0 0 0 0 0 0 0 0 0 0 0 127 0" result="hardAlpha"/>
<feOffset/>
<feGaussianBlur stdDeviation="6.5641"/>
<feComposite in2="hardAlpha" operator="out"/>
<feColorMatrix type="matrix" values="0 0 0 0 0.615686 0 0 0 0 0.258824 0 0 0 0 0.713726 0 0 0 1 0"/>
<feBlend mode="normal" in2="BackgroundImageFix" result="effect1_dropShadow_515_4633"/>
<feBlend mode="normal" in="SourceGraphic" in2="effect1_dropShadow_515_4633" result="shape"/>
</filter>
<linearGradient id="paint0_linear_515_4633" x1="39.4409" y1="-16.3568" x2="100.977" y2="84.9779" gradientUnits="userSpaceOnUse">
<stop stop-color="#FF001C"/>
<stop offset="0.2194" stop-color="#FF009D"/>
<stop offset="0.2677" stop-color="#F9049F"/>
<stop offset="0.3324" stop-color="#E80FA3"/>
<stop offset="0.4064" stop-color="#CC22AA"/>
<stop offset="0.4872" stop-color="#A53CB4"/>
<stop offset="0.5737" stop-color="#735DC0"/>
<stop offset="0.6634" stop-color="#3785CF"/>
<stop offset="0.7369" stop-color="#00AADD"/>
<stop offset="1" stop-color="#FFD400"/>
</linearGradient>
<linearGradient id="paint1_linear_515_4633" x1="-25.6458" y1="132.464" x2="88.8946" y2="-5.75922" gradientUnits="userSpaceOnUse">
<stop stop-color="#FF001C"/>
<stop offset="0.2194" stop-color="#FF009D"/>
<stop offset="0.2677" stop-color="#F9049F"/>
<stop offset="0.3324" stop-color="#E80FA3"/>
<stop offset="0.4064" stop-color="#CC22AA"/>
<stop offset="0.4872" stop-color="#A53CB4"/>
<stop offset="0.5737" stop-color="#735DC0"/>
<stop offset="0.6634" stop-color="#3785CF"/>
<stop offset="0.7369" stop-color="#00AADD"/>
<stop offset="1" stop-color="#FFD400"/>
</linearGradient>
<clipPath id="clip0_515_4633">
<rect width="52.5128" height="52.514" fill="white" transform="translate(19.7422 19.7441)"/>
</clipPath>
<clipPath id="clip1_515_4633">
<rect width="37" height="37" fill="white" transform="translate(28 27)"/>
</clipPath>
</defs>
</svg>
