<svg width="41" height="41" viewBox="0 0 41 41" fill="none" xmlns="http://www.w3.org/2000/svg">
<g id="Frame 4">
<g id="linkedin icon">
<g id="Group">
<path id="Vector" fill-rule="evenodd" clip-rule="evenodd" d="M12.0032 7.50697C12.0032 9.20482 10.7104 10.5789 8.68876 10.5789C6.74585 10.5789 5.45308 9.20482 5.49309 7.50697C5.45308 5.7266 6.74582 4.39258 8.72749 4.39258C10.7104 4.39258 11.9645 5.7266 12.0032 7.50697ZM5.65563 32.7822V13.0056H11.8019V32.7809H5.65563V32.7822Z" fill="white"/>
</g>
<g id="Group_2">
<path id="Vector_2" fill-rule="evenodd" clip-rule="evenodd" d="M16.725 19.3171C16.725 16.8503 16.6438 14.7474 16.5625 13.0083H21.9011L22.1849 15.7176H22.3062C23.1151 14.4636 25.1368 12.5645 28.4125 12.5645C32.4558 12.5645 35.489 15.2338 35.489 21.055V32.7849H29.3427V21.8251C29.3427 19.2758 28.4537 17.538 26.2295 17.538C24.5304 17.538 23.5202 18.7107 23.1164 19.8422C22.9538 20.2473 22.8738 20.8124 22.8738 21.38V32.7849H16.7275V19.3171H16.725Z" fill="white"/>
</g>
</g>
</g>
</svg>
